<svg xmlns="http://www.w3.org/2000/svg"  viewBox="0 0 50 50" width="50px" height="50px"><path d="M 20.365234 3.4238281 L 19.5 3.9238281 L 15.5 6.234375 L 10.5 9.1230469 L 9.6347656 9.6230469 L 10.134766 10.490234 L 17.634766 23.482422 L 10.501953 27.59375 L 9.6347656 28.09375 L 10.134766 28.960938 L 14.134766 35.890625 L 14.634766 36.755859 L 15.501953 36.255859 L 22.634766 32.136719 L 30.134766 45.130859 L 30.634766 45.996094 L 31.501953 45.496094 L 36.501953 42.605469 L 40.501953 40.296875 L 41.367188 39.796875 L 40.867188 38.929688 L 33.367188 25.945312 L 40.501953 21.826172 L 41.367188 21.326172 L 40.867188 20.460938 L 36.867188 13.529297 L 36.367188 12.664062 L 35.501953 13.164062 L 28.367188 17.283203 L 20.867188 4.2890625 L 20.365234 3.4238281 z M 19.908203 5.1308594 L 27.658203 18.558594 L 24.091797 20.617188 L 16.341797 7.1914062 L 19.908203 5.1308594 z M 15.908203 7.4414062 L 23.783203 21.083984 A 0.250025 0.250025 0 0 0 24.125 21.175781 L 28.109375 18.875 A 0.250025 0.250025 0 0 0 28.125 18.867188 L 31.908203 16.681641 L 35.660156 23.177734 L 31.875 25.363281 A 0.250025 0.250025 0 0 0 31.853516 25.376953 L 27.875 27.669922 A 0.250025 0.250025 0 0 0 27.783203 28.011719 L 35.658203 41.648438 L 31.091797 44.289062 L 23.216797 30.644531 A 0.250025 0.250025 0 0 0 22.875 30.552734 L 15.091797 35.048828 L 11.341797 28.550781 L 19.125 24.066406 A 0.250025 0.250025 0 0 0 19.216797 23.724609 L 11.341797 10.082031 L 15.908203 7.4414062 z M 35.908203 14.371094 L 39.658203 20.869141 L 36.09375 22.927734 L 32.341797 16.431641 L 35.908203 14.371094 z M 31.908203 25.921875 L 39.658203 39.337891 L 36.091797 41.398438 L 28.341797 27.978516 L 31.908203 25.921875 z"/></svg>